<svg width="23" height="23" viewBox="0 0 23 23" fill="none" xmlns="http://www.w3.org/2000/svg">
<path d="M9.96665 2.3C5.74155 2.3 2.29999 5.74157 2.29999 9.96667C2.29999 14.1918 5.74155 17.6333 9.96665 17.6333C11.804 17.6333 13.4913 16.9809 14.8137 15.8979L19.3913 20.4754C19.4619 20.549 19.5465 20.6077 19.6402 20.6482C19.7338 20.6887 19.8346 20.71 19.9366 20.7111C20.0386 20.7121 20.1397 20.6928 20.2342 20.6542C20.3286 20.6157 20.4144 20.5587 20.4865 20.4865C20.5587 20.4144 20.6157 20.3286 20.6542 20.2342C20.6928 20.1397 20.7121 20.0386 20.7111 19.9366C20.71 19.8346 20.6886 19.7338 20.6482 19.6402C20.6077 19.5465 20.549 19.4619 20.4754 19.3913L15.8978 14.8137C16.9809 13.4913 17.6333 11.804 17.6333 9.96667C17.6333 5.74157 14.1918 2.3 9.96665 2.3ZM9.96665 3.83334C13.3631 3.83334 16.1 6.57024 16.1 9.96667C16.1 13.3631 13.3631 16.1 9.96665 16.1C6.57023 16.1 3.83332 13.3631 3.83332 9.96667C3.83332 6.57024 6.57023 3.83334 9.96665 3.83334Z" fill="#FFF96B"/>
</svg>
