<svg width="150" height="24" viewBox="0 0 150 24" fill="none" xmlns="http://www.w3.org/2000/svg">
<path d="M18.01 23.97H15.04V7.74L16.9 5.91H14.47L10.48 13.62H8.32L4.48 5.91H2.08L3.94 7.74V23.97H0.97V3.27H6.28L9.37 10.08H9.73L12.88 3.27H18.01V23.97ZM33.4788 21.39L30.8988 24H25.3487L22.7687 21.39V11.04L25.3487 8.43H30.8988L33.4788 11.04V21.39ZM30.5388 21.39V11.04H25.7388V21.39H30.5388ZM47.871 19.86L43.701 24H41.271L37.131 19.86V7.71L40.071 10.68V19.38L42.501 21.72L44.901 19.38V10.68L47.871 7.71V19.86ZM54.7844 5.88H51.8144V2.91H54.7844V5.88ZM54.7844 24H51.8144V10.71L54.7844 7.71V24ZM69.8589 24H61.7289L59.1489 21.39V11.04L61.7289 8.43H67.2789L69.8589 11.04V16.23L67.2789 18.81H62.4789L65.1189 16.23H66.9189V11.04H62.1189V21.39H69.8589V24Z" fill="#AB20FD"/>
<path d="M84.268 16.23H76.888V24H73.918V8.43L76.528 5.88H73.558V3.27H84.268V5.88H76.888V15.87L79.078 13.62H84.268V16.23ZM90.2856 5.88H87.3156V2.91H90.2856V5.88ZM90.2856 24H87.3156V10.71L90.2856 7.71V24ZM105.66 24H102.72V11.04H97.9202V24H94.9502V8.43H97.9202V10.68L100.11 8.43H103.08L105.66 11.04V24ZM120.583 24H117.643V21.78L115.483 24H112.453L109.873 21.39V11.04L112.453 8.43H117.643V3.24L120.583 0.299999V24ZM117.643 21.39V8.79L115.363 11.04H112.843V21.39H117.643ZM135.717 24H127.587L125.007 21.39V11.04L127.587 8.43H133.137L135.717 11.04V16.23L133.137 18.81H128.337L130.977 16.23H132.777V11.04H127.977V21.39H135.717V24ZM149.766 13.62L146.796 16.59V11.04H142.386V24H139.416V8.43H142.386V10.68L144.546 8.43H147.186L149.766 11.04V13.62Z" fill="#FFF96B"/>
</svg>
